<?xml version="1.0" encoding="UTF-8"?>
<svg width="246px" height="143px" viewBox="0 0 246 143" version="1.1" xmlns="http://www.w3.org/2000/svg" xmlns:xlink="http://www.w3.org/1999/xlink">
    <title>90143834-3B99-4A31-9F65-D9A617541C37</title>
    <g id="Exchange-NEW" stroke="none" stroke-width="1" fill="none" fill-rule="evenodd">
        <g id="40-2-Default-Exchange" transform="translate(-1565.000000, -359.000000)" fill="#4166A9">
            <path d="M1587.79872,360.304297 C1589.08494,361.117413 1589.8654,362.246835 1589.45092,363.733466 C1587.79635,371.630852 1592.67414,377.789499 1594.08283,385.692206 C1600.55207,388.197034 1608.29096,388.829434 1614.92482,391.083949 C1619.1524,392.416097 1622.99079,391.164667 1627.25565,390.909009 C1627.76529,390.247512 1628.19566,389.446751 1628.60283,388.607352 L1628.78931,388.21756 L1628.8817,388.021293 L1628.8817,388.021293 L1629.06553,387.627392 L1629.34123,387.037245 L1629.34123,387.037245 L1629.52678,386.64749 C1630.803,384.000464 1632.27746,381.73904 1635.70911,383.019912 C1642.55434,384.890336 1649.75554,386.707208 1656.54036,388.344374 C1657.72069,387.682144 1658.38679,387.308098 1659.38108,386.750232 C1666.19922,388.080308 1673.42742,389.874561 1680.2055,391.77698 C1687.99957,394.392905 1695.81242,396.554687 1704.11038,395.378965 C1704.08937,395.550544 1704.06836,395.722122 1704.04736,395.8937 C1705.27681,396.368149 1706.70783,396.448378 1708.14216,396.506031 L1708.75649,396.530441 C1711.00555,396.622821 1713.19279,396.790559 1714.5488,398.475806 C1715.9702,398.909142 1717.90373,397.68779 1718.44291,400.393958 C1716.76824,400.609685 1715.22803,400.808057 1713.6879,401.005921 L1713.59713,401.338601 C1714.40362,401.656514 1715.2091,401.974285 1716.12786,402.33698 C1716.36383,402.967794 1716.62766,403.672959 1717.00733,404.688567 L1725.35113,405.861211 C1726.2461,407.100467 1728.10346,407.714188 1730.12645,408.243466 C1740.75434,411.27423 1751.44349,414.079 1761.96948,417.326425 C1765.67579,418.167891 1766.60735,422.222906 1769.26576,424.453175 C1771.11826,426.239765 1771.63283,428.509514 1771.95966,431.319454 C1774.67473,433.30858 1777.61372,435.461755 1780.57377,437.630839 C1783.73925,436.135165 1786.21179,437.831256 1789.21759,438.215889 C1794.42418,439.124746 1799.63391,440.018511 1804.83441,440.963284 C1807.76748,441.699703 1810.82428,442.937224 1810.26866,446.518585 C1809.41216,455.770046 1809.18723,465.195203 1807.85166,474.370013 C1803.96171,476.117592 1801.18969,475.679328 1798.34915,472.86258 C1795.03923,469.982416 1791.94883,466.697262 1788.84892,463.394277 L1787.91843,462.403234 L1787.06546,461.497574 L1786.63804,461.045694 L1786.63804,461.045694 L1785.78065,460.144944 C1779.7653,453.856854 1773.43695,447.972735 1765.17138,445.238342 C1763.4908,448.838222 1763.82362,454.277573 1764.30431,459.70235 L1764.39572,460.718873 L1764.45662,461.388271 C1764.48701,461.722507 1764.51724,462.055951 1764.54685,462.388164 L1764.6051,463.050817 L1764.65712,463.663452 C1765.48612,473.637707 1765.22099,481.953848 1751.47041,476.297032 C1752.40532,467.902314 1750.27553,459.866154 1749.61587,451.938723 C1745.26937,451.058557 1741.36747,450.267806 1737.16656,449.416387 C1736.80188,450.961288 1736.44209,452.48616 1736.06362,454.088681 C1735.16423,454.383848 1734.29093,454.67025 1733.55501,454.911223 C1725.74252,474.894697 1719.6139,485.648732 1704.54007,500.971923 C1698.80032,502.952442 1696.38601,495.681588 1694.7969,488.70416 L1694.65026,488.051177 C1693.83215,484.359113 1693.22489,480.834043 1692.45359,478.907045 C1706.90192,467.824516 1715.61664,451.132183 1718.84084,433.337272 C1714.75988,432.203368 1711.01223,431.1624 1707.39764,430.158259 C1702.98688,431.580946 1698.76119,430.865358 1694.56887,430.030166 C1693.62447,429.842542 1692.58509,429.236576 1691.95982,428.505992 C1689.84277,426.034687 1687.01481,425.068268 1684.10849,424.16325 L1683.40979,423.946485 C1683.2932,423.910308 1683.17656,423.874044 1683.05992,423.837602 C1672.01519,420.254699 1660.57417,417.336492 1650.47392,411.505562 C1642.3828,408.991863 1633.67144,408.00683 1625.5399,405.806474 C1624.59009,406.313105 1623.92026,406.669536 1623.18648,407.061 L1618.34846,406.38106 L1618.0863,405.861207 C1617.82262,405.338306 1617.54818,404.794011 1617.2075,404.118054 C1609.07168,401.782443 1600.4873,400.645387 1592.25253,398.582784 C1589.98289,398.062345 1587.86986,397.447909 1585.4946,398.043709 C1582.22349,397.793215 1579.59869,395.578026 1576.24793,394.236525 C1575.95382,393.190475 1575.54724,391.743819 1575.12991,390.259402 C1572.74839,389.613216 1570.42735,388.983501 1568.09894,388.35173 C1567.78594,388.266804 1567.69097,388.133619 1567.69329,387.978783 C1566.18089,387.775069 1565,386.071409 1565,384 C1565,381.790861 1566.34315,380 1568,380 C1568.1612,380 1568.31943,380.016952 1568.47374,380.049591 C1568.5233,379.914262 1568.57182,379.773875 1568.61939,379.630398 L1576.97787,381.540909 C1577.15014,372.8106 1577.43022,366.464994 1577.8181,362.504093 C1578.46394,358.862905 1585.09681,358.626722 1587.79872,360.304297 Z M1742.67141,439.936233 L1741.4603,448.553672 C1743.31455,449.852649 1746.28052,451.331175 1747.56611,449.03217 C1747.11731,448.910054 1746.71949,448.801837 1746.33433,448.697017 L1745.56953,448.488796 C1745.44109,448.453811 1745.31122,448.418425 1745.1785,448.38225 C1746.14849,446.030086 1747.07759,443.843599 1746.41853,441.260934 C1745.31917,440.871821 1744.22858,440.486533 1742.67141,439.936233 Z M1625.8153,402.317712 L1625.33767,403.750595 L1652.56245,409.601534 L1652.56245,408.168651 L1625.8153,402.317712 Z M1592.14255,393.720414 C1590.63006,394.675669 1589.19718,394.914483 1587.8439,394.436855 C1590.31165,395.312506 1600.26222,397.780249 1617.69563,401.840084 L1618.17326,400.287794 L1592.14255,393.720414 Z M1636.11228,392.591865 C1636.19857,394.059279 1636.26271,395.153803 1636.33108,396.321425 C1641.52897,397.590552 1646.44806,398.791493 1651.74105,400.083826 C1652.22978,399.280895 1652.68831,398.527062 1653.36617,397.413561 C1647.57482,395.795349 1642.07398,394.257842 1636.11228,392.591865 Z M1582.11237,375.928783 L1581.75415,379.510991 L1587.00805,380.824467 L1587.24687,380.227432 C1586.21201,379.033363 1585.69458,377.918899 1585.69458,376.884039 C1584.73932,376.56562 1583.54525,376.247202 1582.11237,375.928783 Z" id="Combined-Shape"></path>
        </g>
    </g>
</svg>